# xmcd
#
# Track frame offsets: 
#        150
#        11945
#        24978
#        38932
#        52572
#        65577
#        76914
#        89302
#        99395
#        112971
#        126376
#        140100
#
# Disc length: 2019 seconds
#
# Revision: 0
# Processed by: cddbd v1.5.2PL0 Copyright (c) Steve Scherf et al.
# Submitted via: ExactAudioCopy v1.0b1
#
DISCID=9807e10c
DTITLE=Jimmy Ruffin - Ruff'n Ready
DYEAR=1969
DGENRE=R&B
TTITLE0=Don't Let Him Take Your Love From Me (stereo)
TTITLE1=Don't You Miss Me A Little Bit, Baby (stereo)
TTITLE2=Gonna Keep On Tryin' Till I Win Your Love (stereo)
TTITLE3=Farewell Is A Lonely Sound (stereo)
TTITLE4=Everybody Needs Love (stereo)
TTITLE5=96 Tears (stereo)
TTITLE6=It's Wonderful (To Be Loved By You) (stereo)
TTITLE7=Sad And Lonesome Feeling (stereo)
TTITLE8=Love Gives, Love Takes Away (stereo)
TTITLE9=I'll Say Forever My Love (stereo)
TTITLE10=You Got What It Takes (stereo)
TTITLE11=Lonely, Lonely Man Am I (stereo)
EXTD=
EXTT0=
EXTT1=
EXTT2=
EXTT3=
EXTT4=
EXTT5=
EXTT6=
EXTT7=
EXTT8=
EXTT9=
EXTT10=
EXTT11=
PLAYORDER=
